# xmcd CD database file
#
# Track frame offsets:
#	150
#	9386
#	25238
#	61421
#	82814
#	103065
#	127028
#	167584
#	184347
#
# Disc length: 2597 seconds
#
# Revision: 0
# Processed by: cddbd v1.5.1PL2 Copyright (c) Steve Scherf et al.
# Submitted via: CDex 1.51
#
DISCID=6c0a2309
DTITLE=Yvette Johanson - Quotes from the green room
DYEAR=2003
DGENRE=Jazz
TTITLE0=I loves you Porgy
TTITLE1=I'm Shadowing You
TTITLE2=Evil Ways
TTITLE3=Tenderly
TTITLE4=It's Alright with Me
TTITLE5=Smile
TTITLE6=Caravan (part 1)
TTITLE7=Caravan (part 2)
TTITLE8=Mood Indigo
EXTD=YEAR: 2003
EXTT0=
EXTT1=
EXTT2=
EXTT3=
EXTT4=
EXTT5=
EXTT6=
EXTT7=
EXTT8=
PLAYORDER=
